<svg width="24" height="24" viewBox="0 0 24 24" fill="none" xmlns="http://www.w3.org/2000/svg">
<g clip-path="url(#clip0_301_2)">
<path d="M10.0996 0.0424611C8.8809 0.161955 7.77101 0.666259 6.82529 1.52904C6.57726 1.75588 6.19718 2.17512 6.00804 2.43031C5.5209 3.08651 5.14261 3.84195 4.90707 4.6379C4.70008 5.33056 4.61086 5.91183 4.59124 6.6855L4.58053 7.14322L4.3557 7.1574C3.73116 7.19385 3.14945 7.36601 2.59629 7.67385C2.11629 7.94322 1.79867 8.19233 1.43287 8.59335C1.02068 9.04499 0.736961 9.48651 0.488932 10.0556C0.262315 10.5822 0.126701 11.0845 0.0499726 11.6961C0.019638 11.9351 0.019638 12.7331 0.0499726 12.9721C0.228411 14.3837 0.844025 15.6009 1.80581 16.4374C1.98246 16.5913 2.28402 16.8161 2.29652 16.804C2.30008 16.7999 2.31079 16.7189 2.3215 16.6258C2.3554 16.3118 2.47674 15.9756 2.64447 15.7225L2.72834 15.5949L2.64447 15.5301C1.97533 15.0136 1.47748 14.2035 1.26692 13.2961C1.10811 12.6014 1.1331 11.7893 1.3383 11.0966C1.41681 10.8273 1.61845 10.3756 1.76298 10.1366C2.34291 9.18676 3.23867 8.58322 4.24685 8.46778C4.61443 8.42322 4.81607 8.43942 5.50127 8.56904C5.73324 8.61158 5.92774 8.64803 5.92953 8.64803C5.9331 8.64803 5.89741 8.38676 5.85101 8.06474C5.74395 7.3336 5.71897 7.03183 5.73503 6.61259C5.77785 5.4136 6.14187 4.3098 6.80923 3.36195C7.04655 3.02575 7.43555 2.61056 7.77101 2.33714C8.75064 1.53714 10.0122 1.18271 11.2327 1.36702C12.0482 1.48854 12.8297 1.85107 13.4989 2.41816C13.7612 2.63892 14.2483 3.18778 14.4339 3.47132C14.8657 4.1255 15.1637 4.85664 15.31 5.62221C15.3404 5.78828 15.4885 6.78069 15.4885 6.8293C15.4885 6.8374 15.7151 6.71385 15.9935 6.55385C16.27 6.39588 16.5984 6.2217 16.7215 6.17107C17.7011 5.76398 18.7682 5.7498 19.7532 6.12854C20.3866 6.3736 20.9755 6.78271 21.4608 7.3174C22.6724 8.65411 23.1364 10.5761 22.6903 12.4171C22.353 13.8085 21.4858 15.0075 20.3456 15.6556C19.912 15.9027 19.6033 16.0182 19.0073 16.1539C18.9716 16.162 18.9877 16.1863 19.1572 16.3685C19.3624 16.5913 19.5729 16.8688 19.73 17.1179C19.7835 17.205 19.8299 17.2759 19.8317 17.2759C19.862 17.2759 20.3991 17.0531 20.5651 16.9721C21.5911 16.4718 22.5225 15.5604 23.1292 14.4647C24.0232 12.8465 24.2391 10.8617 23.7216 9.04297C23.2541 7.40449 22.2067 6.0212 20.8416 5.24347C19.4944 4.47588 17.8742 4.34626 16.4753 4.89512C16.4021 4.92347 16.3414 4.94373 16.3396 4.93968C16.3361 4.93563 16.3075 4.83639 16.2754 4.71892C15.7097 2.69563 14.3108 1.07537 12.5353 0.386765C11.7787 0.0951193 10.8758 -0.034501 10.0996 0.0424611Z" fill="white"/>
<path d="M11.3844 9.10587C10.9205 9.17068 10.4744 9.37321 10.1175 9.67701C9.78741 9.95853 9.53403 10.3069 9.35024 10.7241C9.29135 10.8578 9.23425 11.0157 9.22355 11.0765C9.16823 11.3722 9.29849 11.6456 9.55544 11.7813C9.64466 11.8279 9.6857 11.836 9.80526 11.836C10.0569 11.834 10.1978 11.7185 10.3245 11.4066C10.4673 11.0603 10.6332 10.8355 10.8759 10.6532C11.6824 10.0557 12.7584 10.5297 13.0296 11.599C13.0867 11.8238 13.0867 12.1965 13.0296 12.4213C12.8869 12.9884 12.5157 13.4056 12.0001 13.5818C11.8983 13.6163 11.7092 13.6203 8.4402 13.6304L4.98741 13.6406L4.8857 13.6973C4.77686 13.758 4.69834 13.8471 4.63589 13.9808C4.6002 14.0537 4.59485 14.0963 4.59485 14.2785C4.59485 14.4608 4.6002 14.5033 4.63589 14.5763C4.69834 14.7099 4.77686 14.799 4.8857 14.8598L4.98741 14.9165H8.41344C11.14 14.9165 11.8698 14.9104 11.9911 14.8902C13.0957 14.6978 13.9379 13.8006 14.1717 12.5712C14.227 12.2755 14.227 11.7449 14.1717 11.4492C13.9486 10.2785 13.1777 9.39752 12.1606 9.15448C11.9876 9.11397 11.5343 9.08562 11.3844 9.10587Z" fill="white"/>
<path d="M3.8061 16.2613C3.68655 16.3078 3.59554 16.3868 3.53131 16.5043C3.45815 16.6319 3.43852 16.7332 3.44744 16.9215C3.45993 17.1747 3.55629 17.3488 3.74365 17.4521L3.84536 17.5088L10.0907 17.519C15.9738 17.5291 16.3432 17.5332 16.4645 17.5656C16.932 17.6952 17.2996 17.918 17.603 18.2582C17.7886 18.4668 17.9117 18.6532 18.0241 18.9043C18.2935 19.4957 18.3578 20.1478 18.2079 20.7838C17.9866 21.7256 17.2961 22.4364 16.3985 22.643C15.4332 22.8658 14.5338 22.404 14.0717 21.4461C14.036 21.3732 13.9718 21.2152 13.9289 21.0957C13.8397 20.8547 13.788 20.7635 13.6845 20.6805C13.4239 20.4658 12.9903 20.5975 12.8405 20.9377C12.7512 21.1423 12.7655 21.3063 12.9083 21.681C13.4935 23.2243 14.855 24.1539 16.27 23.9777C17.1997 23.8623 18.0598 23.3458 18.6451 22.5519C19.3999 21.523 19.6265 20.162 19.2518 18.8861C18.8253 17.4299 17.669 16.3888 16.3182 16.243C16.1862 16.2288 14.0967 16.2228 10.0104 16.2228C4.18974 16.2248 3.89532 16.2268 3.8061 16.2613Z" fill="white"/>
<path d="M2.66413 18.8516C2.54458 18.9002 2.45358 18.9812 2.38934 19.0966C2.31618 19.2242 2.29655 19.3255 2.30547 19.5139C2.31796 19.767 2.41432 19.9412 2.60168 20.0445L2.70339 20.1012L5.46919 20.1113L8.23499 20.1215L8.38131 20.1863C8.72748 20.3382 8.97908 20.6278 9.09506 21.0126C9.13789 21.1544 9.14502 21.205 9.14324 21.4075C9.14324 21.604 9.1361 21.6647 9.09506 21.8025C8.98265 22.1873 8.7025 22.5053 8.35989 22.6369C8.23499 22.6855 8.19038 22.6936 8.00302 22.6916C7.8103 22.6916 7.77283 22.6855 7.63722 22.6308C7.36599 22.5215 7.17685 22.3432 7.03053 22.0556C6.98949 21.9726 6.91989 21.8653 6.87885 21.8207C6.59871 21.5108 6.0616 21.6911 5.94919 22.1326C5.90636 22.3007 5.92421 22.4344 6.02056 22.6531C6.3596 23.4187 7.09476 23.9432 7.89595 23.9918C8.79707 24.0465 9.66785 23.4612 10.064 22.5316C10.2246 22.1569 10.287 21.843 10.287 21.4075C10.287 20.8728 10.1764 20.4435 9.9248 20.008C9.58755 19.4207 9.079 19.0318 8.44019 18.8698C8.27246 18.8273 8.24391 18.8273 5.5138 18.8212C2.8961 18.8151 2.75157 18.8172 2.66413 18.8516Z" fill="white"/>
</g>
<defs>
<clipPath id="clip0_301_2">
<rect width="24" height="24" fill="white"/>
</clipPath>
</defs>
</svg>
