<svg width="24" height="24" viewBox="0 0 24 24" fill="none" xmlns="http://www.w3.org/2000/svg">
<path d="M10.7051 0.0496001C8.41035 0.297993 6.28469 1.18462 4.43163 2.66463C3.98648 3.01652 3.02027 3.98249 2.6683 4.42753C1.16722 6.30427 0.297628 8.40526 0.0491733 10.7477C-0.0163911 11.3687 -0.0163911 12.6348 0.0491733 13.2558C0.280374 15.4327 1.0706 17.4509 2.37843 19.1931C4.32466 21.7909 7.16118 23.4572 10.4256 23.9229C11.0295 24.0092 12.5789 24.0264 13.2414 23.9574C14.7114 23.8022 15.971 23.4365 17.3029 22.781C18.5901 22.1497 19.6253 21.3976 20.6157 20.3799C21.5129 19.4588 22.2134 18.4686 22.7724 17.3302C23.3901 16.0778 23.7352 14.9566 23.9353 13.5456C24.0216 12.9384 24.0216 11.0617 23.9353 10.4545C23.7386 9.0573 23.3901 7.92573 22.7896 6.70446C22.4204 5.95238 22.1098 5.44525 21.6336 4.80702C19.6115 2.10919 16.6093 0.40149 13.2656 0.0461502C12.6686 -0.0159481 11.2917 -0.0159481 10.7051 0.0496001ZM13.2483 1.15357C17.9034 1.6538 21.7993 5.2279 22.7137 9.84387C22.9829 11.1997 22.9898 12.7625 22.7344 14.0528C22.2824 16.3159 21.1781 18.341 19.5528 19.8865C16.6887 22.6085 12.6824 23.5779 8.88311 22.4671C5.75327 21.5494 3.1238 19.1586 1.88152 16.102C0.497771 12.6935 0.942919 8.74335 3.04443 5.75574C3.60345 4.96226 4.46269 4.04459 5.1839 3.4719C6.96449 2.05744 9.04184 1.25707 11.3297 1.09837C11.8404 1.06387 12.6237 1.08457 13.2483 1.15357Z" fill="white"/>
<path d="M11.126 2.22648C10.3807 2.29203 9.31785 2.53353 8.58974 2.80262C8.22741 2.93716 7.30261 3.36495 7.14733 3.4719C7.11282 3.49605 7.34402 3.92729 8.14114 5.3107C8.71742 6.30427 9.20398 7.13915 9.22813 7.16329C9.26264 7.20124 9.32475 7.18054 9.57666 7.05635C9.9873 6.84935 10.5084 6.66996 10.9811 6.57681C11.4987 6.47331 12.4373 6.46641 12.9549 6.56301C13.4104 6.64581 14.0523 6.85625 14.4388 7.04945C14.6803 7.17019 14.7562 7.19434 14.7873 7.15984C14.8425 7.1012 16.913 3.5064 16.8992 3.49605C16.8923 3.48915 16.7094 3.39255 16.492 3.2787C15.4843 2.75087 14.2904 2.39208 13.093 2.25408C12.6892 2.20578 11.5298 2.19199 11.126 2.22648Z" fill="white"/>
<path d="M17.3444 3.86526C17.1994 4.09641 15.2498 7.49456 15.2498 7.51526C15.2498 7.52906 15.3395 7.60841 15.4499 7.69465C16.8198 8.77102 17.5928 10.4649 17.5135 12.2244C17.4789 13.0144 17.2926 13.7458 16.9579 14.4151C16.8268 14.6773 16.806 14.7428 16.844 14.7773C16.8682 14.8015 17.7032 15.2879 18.6971 15.8606C20.0774 16.6575 20.5122 16.8921 20.5363 16.8576C20.6226 16.7299 21.0884 15.7364 21.1954 15.45C21.4301 14.8118 21.6095 14.1149 21.7199 13.4146C21.8062 12.8592 21.8269 11.5482 21.7579 10.9514C21.4232 8.05689 19.9738 5.62126 17.5721 3.91356L17.3927 3.78592L17.3444 3.86526Z" fill="white"/>
<path d="M6.27772 4.03414C4.04163 5.6418 2.57851 8.13608 2.26104 10.896C2.19202 11.4928 2.18857 12.5382 2.25759 13.1212C2.39562 14.2804 2.73379 15.4188 3.2445 16.4158C3.35493 16.6332 3.4619 16.8333 3.47916 16.8574C3.49986 16.8919 3.94501 16.6504 5.34946 15.8432C6.36399 15.2601 7.19907 14.7771 7.20597 14.7702C7.21632 14.7633 7.15076 14.615 7.06104 14.4356C6.84709 14.0009 6.67455 13.4972 6.58138 13.0246C6.51927 12.7106 6.50547 12.5209 6.50202 12.0172C6.50202 11.3652 6.53307 11.1064 6.678 10.5614C6.96787 9.46429 7.65802 8.40862 8.53106 7.72554C8.65874 7.62204 8.76226 7.52199 8.75536 7.50129C8.7312 7.3978 6.64005 3.8237 6.60899 3.8237C6.58829 3.8237 6.4399 3.92029 6.27772 4.03414Z" fill="white"/>
<path d="M11.9577 7.05973C11.9474 7.07698 11.6437 9.72651 11.2814 12.9522C10.5567 19.3897 10.5843 19.0033 10.7776 19.4C10.8984 19.645 11.1537 19.8899 11.4194 20.0176C11.6265 20.1176 11.6713 20.1245 12.0061 20.1245C12.3408 20.1245 12.3856 20.1176 12.5927 20.0176C12.8584 19.8899 13.1137 19.645 13.2345 19.3966C13.4278 19.0033 13.4554 19.3862 12.7307 12.9522C12.3684 9.72651 12.0647 7.07698 12.0544 7.05973C12.0302 7.02523 11.9819 7.02523 11.9577 7.05973ZM12.2994 18.3168C12.4374 18.3961 12.5582 18.6169 12.5582 18.779C12.5582 18.9481 12.4374 19.162 12.2856 19.2517C12.0302 19.4104 11.6817 19.3172 11.5299 19.0447C11.2503 18.5479 11.8094 18.0201 12.2994 18.3168Z" fill="white"/>
</svg>
